# xmcd CD database file generated by OrangeCD 6.0
#
# Track frame offsets:
#	150
#	13095
#	39590
#	52286
#	66557
#	81659
#	91759
#	110272
#	126003
#	145300
#	156237
#	181019
#	206360
#	217013
#	254524
#	287976
#	312641
#	333174
#
# Disc length: 4643 seconds
#
# Revision: 0
# Processed by: cddbd v1.5.2PL0 Copyright (c) Steve Scherf et al.
# Submitted via: OrangeCD 6.0
#
DISCID=18122112
DTITLE=Fleetwood Mac - Kiln House (1970) - Future Games (1971)
DYEAR=1900
DGENRE=
TTITLE0=This is the rock
TTITLE1=Station man
TTITLE2=Blood on the floor
TTITLE3=Hi ho silver
TTITLE4=Jewel jewed Judy
TTITLE5=Buddy's Song
TTITLE6=Earl grey
TTITLE7=One together
TTITLE8=Tell me all the things you do
TTITLE9=Mission bell
TTITLE10=WOMAN OF 2000 YEARS 
TTITLE11=MORNING RAIN
TTITLE12=WHAT A SHAME
TTITLE13=FUTURE GAMES
TTITLE14=SANDS OF TIME
TTITLE15=SOMETIMES
TTITLE16=LAY IT ALL DOWN
TTITLE17=SHOW ME A SMILE
EXTD=
EXTT0=
EXTT1=
EXTT2=
EXTT3=
EXTT4=
EXTT5=
EXTT6=
EXTT7=
EXTT8=
EXTT9=
EXTT10=
EXTT11=
EXTT12=
EXTT13=
EXTT14=
EXTT15=
EXTT16=
EXTT17=
PLAYORDER=
